<svg width="27" height="27" viewBox="0 0 27 27" fill="none" xmlns="http://www.w3.org/2000/svg">
<path d="M14.0589 4.03418C8.77496 4.03418 6.11188 7.82051 6.11188 10.9793C6.11188 12.8936 6.83434 14.5916 8.39 15.2297C8.64313 15.3352 8.87516 15.235 8.94899 14.9502C9.00172 14.7551 9.12301 14.2646 9.17574 14.059C9.24957 13.7795 9.22321 13.6846 9.01754 13.4367C8.5693 12.9094 8.28453 12.2238 8.28453 11.2588C8.28453 8.44805 10.3886 5.93262 13.7584 5.93262C16.7431 5.93262 18.3832 7.75723 18.3832 10.1936C18.3832 13.3998 16.9646 16.1051 14.8605 16.1051C13.6951 16.1051 12.825 15.1453 13.1045 13.9641C13.4367 12.5561 14.0853 11.0373 14.0853 10.0195C14.0853 9.10723 13.5949 8.34785 12.5877 8.34785C11.4011 8.34785 10.4414 9.57656 10.4414 11.2271C10.4414 12.2766 10.7947 12.9885 10.7947 12.9885C10.7947 12.9885 9.57653 18.1459 9.36559 19.0477C8.93844 20.8459 9.30231 23.0502 9.33395 23.2717C9.34977 23.4035 9.52379 23.4352 9.59762 23.335C9.70836 23.1926 11.1216 21.4418 11.6068 19.6963C11.7439 19.2006 12.3873 16.6377 12.3873 16.6377C12.7722 17.376 13.9007 18.0246 15.1031 18.0246C18.6785 18.0246 21.1043 14.7656 21.1043 10.4045C21.099 7.10332 18.3041 4.03418 14.0589 4.03418Z" fill="white"/>
</svg>
