<svg width="27" height="27" viewBox="0 0 27 27" fill="none" xmlns="http://www.w3.org/2000/svg">
<path d="M22.1274 8.89102C21.5104 9.16523 20.8512 9.3498 20.1551 9.42891C20.8617 9.00176 21.4102 8.33203 21.6633 7.53047C20.9988 7.92598 20.2658 8.21074 19.4854 8.36367C18.8578 7.69922 17.9666 7.27734 16.9805 7.27734C14.7656 7.27734 13.1361 9.34453 13.6371 11.4908C10.7842 11.3484 8.25294 9.98262 6.56017 7.90488C5.66368 9.44473 6.09611 11.4645 7.62013 12.4875C7.05587 12.4717 6.52853 12.3135 6.06447 12.0604C6.02755 13.6529 7.16661 15.14 8.8172 15.467C8.33204 15.5988 7.8047 15.6305 7.26681 15.525C7.7045 16.8908 8.97013 17.8822 10.4731 17.9086C9.02814 19.0371 7.21407 19.5434 5.38947 19.3324C6.90822 20.308 8.71173 20.8723 10.6524 20.8723C17.0227 20.8723 20.6244 15.4881 20.4082 10.6629C21.0885 10.183 21.6686 9.58184 22.1274 8.89102Z" fill="white"/>
</svg>
